<svg width="9" height="13" viewBox="0 0 9 13" fill="none" xmlns="http://www.w3.org/2000/svg">
<path d="M0.35555 3.94181L3.96932 0.554171C4.058 0.471038 4.16796 0.430398 4.27732 0.431941C4.40856 0.433792 4.51733 0.477517 4.58176 0.56281L8.09912 4.00886C8.27173 4.18006 8.26816 4.43316 8.09079 4.59943C8.00211 4.68256 7.89215 4.7232 7.78279 4.72166C7.67343 4.72011 7.54278 4.67608 7.47836 4.59079L4.69455 1.87234L4.54965 12.144C4.54638 12.376 4.34684 12.563 4.10624 12.5596C3.86564 12.5562 3.67146 12.3636 3.67474 12.1316L3.81963 1.86L0.959658 4.54102C0.870977 4.62415 0.761018 4.66479 0.651654 4.66325C0.54229 4.66171 0.433521 4.61798 0.347219 4.53238C0.174617 4.36118 0.178187 4.10808 0.35555 3.94181Z" fill="black"/>
</svg>
